<?xml version="1.0" encoding="UTF-8" ?>
<!DOCTYPE svg PUBLIC "-//W3C//DTD SVG 1.1//EN" "http://www.w3.org/Graphics/SVG/1.1/DTD/svg11.dtd">
<svg width="1064pt" height="440pt" viewBox="0 0 1064 440" version="1.1" xmlns="http://www.w3.org/2000/svg">
<g id="#20327eff">
<path fill="#20327e" opacity="1.00" d=" M 40.00 0.00 L 41.01 0.00 C 41.03 20.30 40.96 40.60 40.99 60.90 C 34.37 60.97 27.74 61.04 21.11 61.11 C 21.04 67.72 20.97 74.33 20.89 80.94 C 13.93 80.98 6.97 81.01 0.00 81.04 L 0.00 80.04 C 6.63 80.00 13.26 79.97 19.90 79.94 C 19.97 73.32 20.04 66.71 20.11 60.10 C 26.74 60.05 33.37 59.99 40.00 59.94 C 39.95 39.96 40.05 19.98 40.00 0.00 Z" />
<path fill="#20327e" opacity="1.00" d=" M 160.00 60.00 C 240.00 60.00 320.00 60.00 400.00 60.00 C 400.01 133.33 399.99 206.66 400.00 280.00 C 320.00 280.00 240.00 280.00 160.00 280.00 C 160.00 206.67 160.00 133.33 160.00 60.00 M 180.00 80.00 C 180.00 86.66 180.00 93.33 180.00 100.00 C 186.66 99.99 193.33 99.99 200.00 100.00 C 199.99 93.33 199.99 86.66 200.00 80.00 C 193.33 80.00 186.66 80.00 180.00 80.00 M 220.00 80.01 C 220.00 86.67 220.00 93.33 220.00 99.99 C 240.00 100.01 260.00 100.01 280.00 99.99 C 279.99 93.33 279.99 86.67 280.00 80.01 C 260.00 79.99 240.00 79.99 220.00 80.01 M 300.00 80.00 C 300.00 86.66 300.00 93.33 300.00 100.00 C 306.66 99.99 313.33 99.99 320.00 100.00 C 319.99 93.33 319.99 86.66 320.00 80.00 C 313.33 80.00 306.66 80.00 300.00 80.00 M 180.00 120.01 C 180.00 126.67 180.00 133.33 180.00 139.99 C 200.00 140.01 220.00 140.01 240.00 139.99 C 239.99 133.33 239.99 126.67 240.00 120.01 C 220.00 119.99 200.00 119.99 180.00 120.01 M 260.00 120.00 C 260.00 126.66 260.00 133.33 260.00 140.00 C 266.66 139.99 273.33 139.99 280.00 140.00 C 279.99 133.33 279.99 126.66 280.00 120.00 C 273.33 120.00 266.66 120.00 260.00 120.00 Z" />
<path fill="#20327e" opacity="1.00" d=" M 524.00 80.00 C 564.00 80.00 604.00 80.00 644.00 80.00 C 644.00 113.33 644.00 146.67 644.00 180.00 C 617.33 179.97 590.66 180.03 564.00 180.00 C 564.00 186.66 564.00 193.33 564.00 200.00 C 590.67 199.97 617.35 200.03 644.03 200.00 C 643.96 213.33 643.96 226.66 644.03 240.00 C 604.02 240.00 564.01 240.00 524.00 240.00 C 524.00 186.67 524.00 133.33 524.00 80.00 M 564.00 119.97 C 564.00 126.66 564.00 133.34 564.00 140.03 C 577.33 139.96 590.66 139.96 604.00 140.03 C 603.99 133.34 603.99 126.66 604.00 119.97 C 590.66 120.03 577.33 120.03 564.00 119.97 Z" />
<path fill="#20327e" opacity="1.00" d=" M 664.00 80.00 C 704.01 80.00 744.02 80.00 784.03 80.00 C 783.96 93.33 783.96 106.67 784.03 120.00 C 757.35 119.97 730.67 120.03 704.00 120.00 C 704.00 126.66 704.00 133.33 704.00 140.00 C 730.66 139.97 757.33 140.03 784.00 140.00 C 784.00 173.33 784.00 206.67 784.00 240.00 C 743.99 240.00 703.98 240.00 663.97 240.00 C 664.03 226.66 664.03 213.33 663.97 200.00 C 690.65 200.03 717.32 199.97 744.00 200.00 C 743.99 193.33 743.99 186.66 744.00 180.00 C 717.33 180.03 690.66 179.97 664.00 180.00 C 663.99 146.67 663.99 113.33 664.00 80.00 Z" />
<path fill="#20327e" opacity="1.00" d=" M 804.00 80.00 C 844.01 80.00 884.02 80.00 924.03 80.00 C 923.96 93.33 923.96 106.67 924.03 120.00 C 897.35 119.97 870.67 120.03 844.00 120.00 C 843.99 126.66 843.99 133.33 844.00 140.00 C 870.66 139.97 897.33 140.03 924.00 140.00 C 924.00 173.33 924.00 206.67 924.00 240.00 C 883.99 240.00 843.98 240.00 803.97 240.00 C 804.03 226.66 804.03 213.33 803.97 200.00 C 830.64 200.03 857.32 199.97 884.00 200.00 C 883.98 193.33 883.98 186.66 884.00 180.00 C 857.33 180.03 830.66 179.97 804.00 180.00 C 803.99 146.67 803.99 113.33 804.00 80.00 Z" />
<path fill="#20327e" opacity="1.00" d=" M 944.00 80.00 C 984.00 79.99 1024.00 80.00 1064.00 80.00 L 1064.00 180.01 C 1037.33 179.94 1010.66 180.04 984.00 180.00 C 983.98 186.67 983.99 193.33 984.00 200.00 C 1010.66 199.96 1037.33 200.06 1064.00 199.99 L 1064.00 240.00 C 1024.00 240.01 984.00 240.00 944.00 240.00 C 944.00 186.67 943.99 133.33 944.00 80.00 M 984.00 119.97 C 983.99 126.66 983.99 133.34 984.00 140.03 C 997.32 139.96 1010.66 139.96 1024.00 140.03 C 1023.98 133.34 1023.98 126.66 1024.00 119.97 C 1010.66 120.03 997.32 120.03 984.00 119.97 Z" />
<path fill="#20327e" opacity="1.00" d=" M 0.00 119.98 C 13.33 120.03 26.66 120.04 40.00 119.99 C 40.00 126.66 40.00 133.33 40.00 140.01 C 26.67 139.95 13.33 139.98 0.00 140.04 L 0.00 119.98 Z" />
<path fill="#20327e" opacity="1.00" d=" M 0.00 159.98 C 13.33 160.03 26.66 160.04 40.00 159.99 C 40.00 166.66 40.00 173.33 40.00 180.01 C 26.67 179.95 13.33 179.98 0.00 180.04 L 0.00 159.98 Z" />
<path fill="#20327e" opacity="1.00" d=" M 0.00 199.98 C 13.33 200.03 26.66 200.04 40.00 199.99 C 40.00 206.66 40.00 213.33 40.00 220.01 C 26.67 219.95 13.33 219.98 0.00 220.04 L 0.00 199.98 Z" />
<path fill="#20327e" opacity="1.00" d=" M 0.00 239.98 C 13.33 240.03 26.66 240.04 40.00 239.99 C 40.00 246.66 40.00 253.33 40.00 260.01 C 26.67 259.95 13.33 259.98 0.00 260.04 L 0.00 239.98 Z" />
<path fill="#20327e" opacity="1.00" d=" M 587.02 265.99 C 597.68 266.02 608.33 266.02 619.00 265.99 C 619.01 323.99 618.99 382.00 619.00 440.00 L 524.00 440.00 C 524.00 397.66 523.99 355.33 524.00 313.00 C 544.99 313.08 565.99 312.92 586.98 313.00 C 586.98 297.32 587.00 281.66 587.02 265.99 M 556.01 344.97 C 555.99 365.99 555.98 387.00 556.01 408.02 C 566.33 407.96 576.66 407.96 586.99 408.03 C 587.01 387.01 587.02 365.99 586.99 344.98 C 576.66 345.03 566.33 345.03 556.01 344.97 Z" />
<path fill="#20327e" opacity="1.00" d=" M 0.00 278.96 C 6.97 278.99 13.93 279.02 20.90 279.06 C 20.97 285.67 21.04 292.28 21.11 298.90 C 27.74 298.95 34.36 299.01 40.99 299.07 C 41.00 306.38 41.00 313.69 41.00 321.01 C 27.33 320.96 13.67 320.97 0.00 321.03 L 0.00 320.04 C 13.33 319.98 26.67 319.95 40.00 320.00 C 40.00 313.37 39.99 306.73 39.98 300.10 C 33.36 300.03 26.73 299.96 20.11 299.89 C 20.04 293.28 19.97 286.67 19.90 280.06 C 13.26 280.02 6.63 280.00 0.00 279.96 L 0.00 278.96 Z" />
<path fill="#20327e" opacity="1.00" d=" M 419.20 299.56 C 419.35 306.53 419.32 313.52 419.11 320.50 C 419.09 313.52 419.13 306.53 419.20 299.56 Z" />
<path fill="#20327e" opacity="1.00" d=" M 635.00 313.00 C 666.66 312.99 698.32 312.99 729.99 313.00 C 730.00 339.67 730.03 366.33 729.99 393.00 C 708.99 392.91 687.99 393.09 667.00 393.00 C 667.00 396.75 667.00 404.25 667.00 408.00 C 687.99 407.90 708.99 408.10 729.99 408.00 C 729.97 418.66 730.00 429.33 730.03 440.00 L 635.00 440.00 C 634.99 397.67 635.00 355.33 635.00 313.00 M 667.00 344.98 C 666.99 350.32 666.99 355.67 667.00 361.02 C 677.33 360.96 687.66 360.95 698.00 361.02 C 697.99 355.67 697.99 350.32 698.00 344.98 C 687.66 345.03 677.33 345.04 667.00 344.98 Z" />
<path fill="#20327e" opacity="1.00" d=" M 746.01 312.99 C 756.66 313.02 767.33 313.02 778.00 312.98 C 777.99 344.66 778.01 376.33 778.00 408.00 C 767.33 407.98 756.66 407.97 746.00 408.00 C 746.00 376.33 745.97 344.66 746.01 312.99 Z" />
<path fill="#20327e" opacity="1.00" d=" M 809.00 312.99 C 819.66 313.02 830.33 313.01 841.00 312.99 C 841.00 344.66 841.02 376.32 841.00 408.00 C 830.32 407.96 819.66 407.98 809.00 408.01 C 808.99 376.33 808.99 344.66 809.00 312.99 Z" />
<path fill="#20327e" opacity="1.00" d=" M 778.00 408.00 C 788.33 408.03 798.65 408.01 809.00 408.01 C 808.99 418.67 808.99 429.33 809.00 440.00 L 778.00 440.00 C 777.99 429.33 778.00 418.66 778.00 408.00 Z" />
</g>
<g id="#4766a7ff">
<path fill="#4766a7" opacity="1.00" d=" M 41.01 0.00 L 120.00 0.00 C 120.00 100.00 119.99 199.99 120.00 299.99 C 126.66 299.99 133.33 300.00 140.00 300.00 C 140.00 306.66 140.00 313.32 140.00 319.99 C 126.66 320.01 113.33 320.03 100.00 320.00 C 100.00 360.00 100.00 400.00 100.00 440.00 L 0.00 440.00 L 0.00 321.03 C 13.67 320.97 27.33 320.96 41.00 321.01 C 41.00 313.69 41.00 306.38 40.99 299.07 C 34.36 299.01 27.74 298.95 21.11 298.90 C 21.04 292.28 20.97 285.67 20.90 279.06 C 13.93 279.02 6.97 278.99 0.00 278.96 L 0.00 260.04 C 13.33 259.98 26.67 259.95 40.00 260.01 C 40.00 253.33 40.00 246.66 40.00 239.99 C 26.66 240.04 13.33 240.03 0.00 239.98 L 0.00 220.04 C 13.33 219.98 26.67 219.95 40.00 220.01 C 40.00 213.33 40.00 206.66 40.00 199.99 C 26.66 200.04 13.33 200.03 0.00 199.98 L 0.00 180.04 C 13.33 179.98 26.67 179.95 40.00 180.01 C 40.00 173.33 40.00 166.66 40.00 159.99 C 26.66 160.04 13.33 160.03 0.00 159.98 L 0.00 140.04 C 13.33 139.98 26.67 139.95 40.00 140.01 C 40.00 133.33 40.00 126.66 40.00 119.99 C 26.66 120.04 13.33 120.03 0.00 119.98 L 0.00 81.04 C 6.97 81.01 13.93 80.98 20.89 80.94 C 20.97 74.33 21.04 67.72 21.11 61.11 C 27.74 61.04 34.37 60.97 40.99 60.90 C 40.96 40.60 41.03 20.30 41.01 0.00 Z" />
</g>
<g id="#c5d9f1ff">
<path fill="#c5d9f1" opacity="1.00" d=" M 120.00 0.00 L 459.00 0.00 C 459.00 99.64 459.01 199.29 459.00 298.93 C 445.73 298.94 432.46 299.03 419.20 299.56 C 326.15 300.59 233.07 299.71 140.00 300.00 C 133.33 300.00 126.66 299.99 120.00 299.99 C 119.99 199.99 120.00 100.00 120.00 0.00 M 140.00 19.99 C 140.00 106.66 140.00 193.33 140.00 280.00 C 146.67 280.00 153.33 280.00 160.00 280.00 C 240.00 280.00 320.00 280.00 400.00 280.00 C 406.66 280.00 413.32 279.99 420.00 280.00 C 426.67 280.00 433.32 279.99 440.00 280.00 C 440.00 193.33 440.00 106.67 440.00 20.00 C 346.67 20.00 253.33 20.00 160.00 20.00 C 153.33 20.01 146.66 20.00 140.00 19.99 Z" />
<path fill="#c5d9f1" opacity="1.00" d=" M 100.00 320.00 C 113.33 320.03 126.66 320.01 140.00 319.99 C 233.04 320.35 326.09 319.33 419.11 320.50 C 439.40 321.20 459.70 321.02 480.00 321.00 C 480.01 360.67 480.00 400.33 480.00 440.00 L 100.00 440.00 C 100.00 400.00 100.00 360.00 100.00 320.00 M 120.00 340.00 C 120.00 346.66 120.00 353.33 120.00 360.00 C 126.67 359.99 133.33 359.99 140.00 360.00 C 139.95 353.33 140.00 346.65 140.02 340.00 C 133.35 340.00 126.67 340.00 120.00 340.00 M 160.00 340.00 C 160.00 346.66 159.99 353.32 160.00 360.00 C 153.33 360.02 146.66 360.00 140.00 360.00 C 140.04 366.66 140.01 373.32 139.99 380.00 C 133.33 380.02 126.66 379.99 120.00 379.99 C 120.00 386.65 120.00 393.32 120.00 400.00 C 126.66 400.00 133.33 399.99 140.00 400.00 C 140.03 406.67 140.00 413.32 139.99 420.00 C 146.66 419.99 153.33 419.99 160.00 420.00 C 160.00 413.33 160.00 406.66 160.00 400.00 C 166.67 399.98 173.33 399.99 180.00 400.00 C 180.02 406.67 180.00 413.33 179.99 420.00 C 186.66 419.99 193.33 419.99 200.00 420.00 C 200.00 413.33 200.00 406.66 200.00 400.00 C 206.67 399.99 213.33 399.99 220.00 400.01 C 219.99 393.33 219.99 386.66 220.00 380.00 C 213.33 380.00 206.66 379.99 200.00 380.00 C 199.98 373.33 199.99 366.66 200.00 360.00 C 193.33 360.04 186.66 360.01 180.00 359.99 C 179.98 353.33 179.99 346.65 180.01 340.00 C 173.34 340.00 166.67 340.00 160.00 340.00 M 200.00 340.00 C 200.00 346.66 199.99 353.32 200.00 360.00 C 206.67 359.95 213.33 359.99 220.00 360.02 C 219.99 353.34 219.99 346.67 220.00 340.00 C 213.33 340.00 206.66 340.00 200.00 340.00 M 320.00 360.00 C 320.00 366.66 320.00 373.33 320.00 380.00 C 360.00 380.00 400.00 380.00 440.00 380.00 C 439.99 373.33 439.99 366.66 440.00 360.00 C 400.00 360.00 360.00 360.00 320.00 360.00 Z" />
<path fill="#c5d9f1" opacity="1.00" d=" M 160.00 360.00 C 166.67 359.99 173.33 359.98 180.00 359.99 C 180.00 366.65 180.00 373.33 180.00 380.00 C 173.33 379.99 166.67 380.00 160.00 380.00 C 160.00 373.33 160.00 366.66 160.00 360.00 Z" />
<path fill="#c5d9f1" opacity="1.00" d=" M 139.99 380.00 C 146.66 379.99 153.33 379.99 160.00 380.00 C 159.99 386.66 160.00 393.33 160.00 400.00 C 153.33 399.99 146.66 400.00 140.00 400.00 C 139.99 393.33 139.99 386.66 139.99 380.00 Z" />
<path fill="#c5d9f1" opacity="1.00" d=" M 180.00 380.00 C 186.67 380.00 193.33 379.99 200.00 380.00 C 200.00 386.66 200.00 393.33 200.00 400.00 C 193.33 399.99 186.66 400.00 180.00 400.00 C 179.99 393.33 179.99 386.66 180.00 380.00 Z" />
</g>
<g id="#ffffffff">
<path fill="#ffffff" opacity="1.00" d=" M 140.00 19.99 C 146.66 20.00 153.33 20.01 160.00 20.00 C 160.00 26.67 160.00 33.33 160.00 40.00 C 160.00 46.67 160.00 53.33 160.00 60.00 C 160.00 133.33 160.00 206.67 160.00 280.00 C 153.33 280.00 146.67 280.00 140.00 280.00 C 140.00 193.33 140.00 106.66 140.00 19.99 Z" />
</g>
<g id="#87a9cfff">
<path fill="#87a9cf" opacity="1.00" d=" M 160.00 20.00 C 253.33 20.00 346.67 20.00 440.00 20.00 C 440.00 106.67 440.00 193.33 440.00 280.00 C 433.32 279.99 426.67 280.00 420.00 280.00 C 420.00 200.00 420.01 120.00 420.00 40.00 C 333.33 40.00 246.67 40.00 160.00 40.00 C 160.00 33.33 160.00 26.67 160.00 20.00 Z" />
<path fill="#87a9cf" opacity="1.00" d=" M 140.00 300.00 C 233.07 299.71 326.15 300.59 419.20 299.56 C 419.13 306.53 419.09 313.52 419.11 320.50 C 326.09 319.33 233.04 320.35 140.00 319.99 C 140.00 313.32 140.00 306.66 140.00 300.00 Z" />
<path fill="#87a9cf" opacity="1.00" d=" M 120.00 340.00 C 126.67 340.00 133.35 340.00 140.02 340.00 C 140.00 346.65 139.95 353.33 140.00 360.00 C 133.33 359.99 126.67 359.99 120.00 360.00 C 120.00 353.33 120.00 346.66 120.00 340.00 Z" />
<path fill="#87a9cf" opacity="1.00" d=" M 160.00 340.00 C 166.67 340.00 173.34 340.00 180.01 340.00 C 179.99 346.65 179.98 353.33 180.00 359.99 C 173.33 359.98 166.67 359.99 160.00 360.00 C 159.99 353.32 160.00 346.66 160.00 340.00 Z" />
<path fill="#87a9cf" opacity="1.00" d=" M 200.00 340.00 C 206.66 340.00 213.33 340.00 220.00 340.00 C 219.99 346.67 219.99 353.34 220.00 360.02 C 213.33 359.99 206.67 359.95 200.00 360.00 C 199.99 353.32 200.00 346.66 200.00 340.00 Z" />
<path fill="#87a9cf" opacity="1.00" d=" M 140.00 360.00 C 146.66 360.00 153.33 360.02 160.00 360.00 C 160.00 366.66 160.00 373.33 160.00 380.00 C 153.33 379.99 146.66 379.99 139.99 380.00 C 140.01 373.32 140.04 366.66 140.00 360.00 Z" />
<path fill="#87a9cf" opacity="1.00" d=" M 180.00 359.99 C 186.66 360.01 193.33 360.04 200.00 360.00 C 199.99 366.66 199.98 373.33 200.00 380.00 C 193.33 379.99 186.67 380.00 180.00 380.00 C 180.00 373.33 180.00 366.65 180.00 359.99 Z" />
<path fill="#87a9cf" opacity="1.00" d=" M 320.00 360.00 C 360.00 360.00 400.00 360.00 440.00 360.00 C 439.99 366.66 439.99 373.33 440.00 380.00 C 400.00 380.00 360.00 380.00 320.00 380.00 C 320.00 373.33 320.00 366.66 320.00 360.00 Z" />
<path fill="#87a9cf" opacity="1.00" d=" M 120.00 379.99 C 126.66 379.99 133.33 380.02 139.99 380.00 C 139.99 386.66 139.99 393.33 140.00 400.00 C 133.33 399.99 126.66 400.00 120.00 400.00 C 120.00 393.32 120.00 386.65 120.00 379.99 Z" />
<path fill="#87a9cf" opacity="1.00" d=" M 160.00 380.00 C 166.67 380.00 173.33 379.99 180.00 380.00 C 179.99 386.66 179.99 393.33 180.00 400.00 C 173.33 399.99 166.67 399.98 160.00 400.00 C 160.00 393.33 159.99 386.66 160.00 380.00 Z" />
<path fill="#87a9cf" opacity="1.00" d=" M 200.00 380.00 C 206.66 379.99 213.33 380.00 220.00 380.00 C 219.99 386.66 219.99 393.33 220.00 400.01 C 213.33 399.99 206.67 399.99 200.00 400.00 C 200.00 393.33 200.00 386.66 200.00 380.00 Z" />
<path fill="#87a9cf" opacity="1.00" d=" M 140.00 400.00 C 146.66 400.00 153.33 399.99 160.00 400.00 C 160.00 406.66 160.00 413.33 160.00 420.00 C 153.33 419.99 146.66 419.99 139.99 420.00 C 140.00 413.32 140.03 406.67 140.00 400.00 Z" />
<path fill="#87a9cf" opacity="1.00" d=" M 180.00 400.00 C 186.66 400.00 193.33 399.99 200.00 400.00 C 200.00 406.66 200.00 413.33 200.00 420.00 C 193.33 419.99 186.66 419.99 179.99 420.00 C 180.00 413.33 180.02 406.67 180.00 400.00 Z" />
</g>
<g id="#131b49ff">
<path fill="#131b49" opacity="1.00" d=" M 160.00 40.00 C 246.67 40.00 333.33 40.00 420.00 40.00 C 420.01 120.00 420.00 200.00 420.00 280.00 C 413.32 279.99 406.66 280.00 400.00 280.00 C 399.99 206.66 400.01 133.33 400.00 60.00 C 320.00 60.00 240.00 60.00 160.00 60.00 C 160.00 53.33 160.00 46.67 160.00 40.00 Z" />
</g>
<g id="#64ff0eff">
<path fill="#64ff0e" opacity="1.00" d=" M 180.00 80.00 C 186.66 80.00 193.33 80.00 200.00 80.00 C 199.99 86.66 199.99 93.33 200.00 100.00 C 193.33 99.99 186.66 99.99 180.00 100.00 C 180.00 93.33 180.00 86.66 180.00 80.00 Z" />
<path fill="#64ff0e" opacity="1.00" d=" M 220.00 80.01 C 240.00 79.99 260.00 79.99 280.00 80.01 C 279.99 86.67 279.99 93.33 280.00 99.99 C 260.00 100.01 240.00 100.01 220.00 99.99 C 220.00 93.33 220.00 86.67 220.00 80.01 Z" />
<path fill="#64ff0e" opacity="1.00" d=" M 300.00 80.00 C 306.66 80.00 313.33 80.00 320.00 80.00 C 319.99 86.66 319.99 93.33 320.00 100.00 C 313.33 99.99 306.66 99.99 300.00 100.00 C 300.00 93.33 300.00 86.66 300.00 80.00 Z" />
<path fill="#64ff0e" opacity="1.00" d=" M 180.00 120.01 C 200.00 119.99 220.00 119.99 240.00 120.01 C 239.99 126.67 239.99 133.33 240.00 139.99 C 220.00 140.01 200.00 140.01 180.00 139.99 C 180.00 133.33 180.00 126.67 180.00 120.01 Z" />
<path fill="#64ff0e" opacity="1.00" d=" M 260.00 120.00 C 266.66 120.00 273.33 120.00 280.00 120.00 C 279.99 126.66 279.99 133.33 280.00 140.00 C 273.33 139.99 266.66 139.99 260.00 140.00 C 260.00 133.33 260.00 126.66 260.00 120.00 Z" />
</g>
</svg>
