<?xml version="1.0" encoding="UTF-8" ?>
<!DOCTYPE svg PUBLIC "-//W3C//DTD SVG 1.1//EN" "http://www.w3.org/Graphics/SVG/1.1/DTD/svg11.dtd">
<svg width="480pt" height="440pt" viewBox="0 0 480 440" version="1.1" xmlns="http://www.w3.org/2000/svg">
<g id="#20327eff">
<path fill="#20327e" opacity="1.00" d=" M 40.01 0.00 L 41.01 0.00 C 41.00 20.32 40.96 40.64 41.01 60.96 C 34.36 60.99 27.70 61.02 21.05 61.05 C 21.02 67.69 20.99 74.33 20.96 80.97 C 13.97 80.99 6.99 81.01 0.00 81.02 L 0.00 80.01 C 6.65 80.01 13.30 79.98 19.96 79.97 C 19.99 73.33 20.02 66.68 20.05 60.04 C 26.70 60.02 33.35 60.00 40.00 59.98 C 39.96 39.99 40.02 19.99 40.01 0.00 Z" />
<path fill="#20327e" opacity="1.00" d=" M 160.00 60.00 C 240.00 59.99 320.00 60.01 400.01 59.99 C 399.99 133.33 400.00 206.66 400.00 280.00 C 320.00 280.00 240.00 280.00 160.00 280.00 C 160.00 206.67 160.00 133.33 160.00 60.00 M 180.00 80.00 C 180.00 86.66 180.00 93.33 180.00 100.00 C 186.66 99.99 193.33 99.99 200.00 100.00 C 199.99 93.33 199.99 86.66 200.00 80.00 C 193.33 80.00 186.66 80.00 180.00 80.00 M 220.00 79.99 C 220.00 86.66 220.00 93.33 220.00 100.01 C 240.00 99.99 260.00 99.99 280.00 100.01 C 279.99 93.33 279.99 86.66 280.00 79.99 C 260.00 80.01 240.00 80.01 220.00 79.99 M 300.00 80.00 C 300.00 86.66 300.00 93.33 300.00 100.00 C 306.66 99.99 313.33 99.99 320.00 100.00 C 319.99 93.33 319.99 86.66 320.00 80.00 C 313.33 80.00 306.66 80.00 300.00 80.00 M 180.00 119.99 C 180.00 126.66 180.00 133.33 180.00 140.01 C 200.00 139.99 220.00 139.99 240.00 140.01 C 239.99 133.33 239.99 126.66 240.00 119.99 C 220.00 120.01 200.00 120.01 180.00 119.99 M 260.00 120.00 C 260.00 126.66 260.00 133.33 260.00 140.00 C 266.66 139.99 273.33 139.99 280.00 140.00 C 279.99 133.33 279.99 126.66 280.00 120.00 C 273.33 120.00 266.66 120.00 260.00 120.00 Z" />
<path fill="#20327e" opacity="1.00" d=" M 0.00 119.98 C 13.33 120.04 26.66 120.03 40.00 119.98 C 40.00 126.66 40.00 133.33 40.00 140.01 C 26.66 139.96 13.33 139.96 0.00 140.03 L 0.00 119.98 Z" />
<path fill="#20327e" opacity="1.00" d=" M 0.00 159.98 C 13.33 160.04 26.66 160.03 40.00 159.98 C 40.00 166.66 40.00 173.33 40.00 180.01 C 26.66 179.96 13.33 179.96 0.00 180.03 L 0.00 159.98 Z" />
<path fill="#20327e" opacity="1.00" d=" M 0.00 199.98 C 13.33 200.04 26.66 200.03 40.00 199.98 C 40.00 206.66 40.00 213.33 40.00 220.01 C 26.66 219.96 13.33 219.96 0.00 220.03 L 0.00 199.98 Z" />
<path fill="#20327e" opacity="1.00" d=" M 0.00 239.98 C 13.33 240.04 26.66 240.03 40.00 239.98 C 40.00 246.66 40.00 253.33 40.00 260.01 C 26.66 259.96 13.33 259.96 0.00 260.03 L 0.00 239.98 Z" />
<path fill="#20327e" opacity="1.00" d=" M 0.00 278.98 C 6.99 278.99 13.97 279.01 20.96 279.03 C 20.99 285.67 21.02 292.31 21.05 298.96 C 27.69 298.98 34.34 299.00 40.99 299.03 C 41.01 306.35 41.02 313.68 40.99 321.02 C 27.33 320.97 13.66 320.96 0.00 321.03 L 0.00 320.03 C 13.33 319.96 26.67 319.96 40.00 320.01 C 40.00 313.35 40.00 306.70 39.99 300.05 C 33.34 300.01 26.69 299.98 20.05 299.95 C 20.02 293.31 19.99 286.67 19.96 280.03 C 13.30 280.01 6.65 279.99 0.00 279.99 L 0.00 278.98 Z" />
<path fill="#20327e" opacity="1.00" d=" M 419.20 299.55 C 419.36 306.52 419.35 313.49 419.15 320.46 C 419.09 313.49 419.14 306.52 419.20 299.55 Z" />
</g>
<g id="#4766a7ff">
<path fill="#4766a7" opacity="1.00" d=" M 41.01 0.00 L 120.00 0.00 C 120.00 100.00 120.01 200.00 119.99 300.00 C 126.66 299.99 133.33 299.99 140.00 300.00 C 140.00 306.65 140.00 313.33 140.00 319.99 C 126.66 320.03 113.33 320.03 99.99 319.99 C 100.02 359.99 99.99 400.00 100.00 440.00 L 0.00 440.00 L 0.00 321.03 C 13.66 320.96 27.33 320.97 40.99 321.02 C 41.02 313.68 41.01 306.35 40.99 299.03 C 34.34 299.00 27.69 298.98 21.05 298.96 C 21.02 292.31 20.99 285.67 20.96 279.03 C 13.97 279.01 6.99 278.99 0.00 278.98 L 0.00 260.03 C 13.33 259.96 26.66 259.96 40.00 260.01 C 40.00 253.33 40.00 246.66 40.00 239.98 C 26.66 240.03 13.33 240.04 0.00 239.98 L 0.00 220.03 C 13.33 219.96 26.66 219.96 40.00 220.01 C 40.00 213.33 40.00 206.66 40.00 199.98 C 26.66 200.03 13.33 200.04 0.00 199.98 L 0.00 180.03 C 13.33 179.96 26.66 179.96 40.00 180.01 C 40.00 173.33 40.00 166.66 40.00 159.98 C 26.66 160.03 13.33 160.04 0.00 159.98 L 0.00 140.03 C 13.33 139.96 26.66 139.96 40.00 140.01 C 40.00 133.33 40.00 126.66 40.00 119.98 C 26.66 120.03 13.33 120.04 0.00 119.98 L 0.00 81.02 C 6.99 81.01 13.97 80.99 20.96 80.97 C 20.99 74.33 21.02 67.69 21.05 61.05 C 27.70 61.02 34.36 60.99 41.01 60.96 C 40.96 40.64 41.00 20.32 41.01 0.00 Z" />
</g>
<g id="#c5d9f1ff">
<path fill="#c5d9f1" opacity="1.00" d=" M 120.00 0.00 L 459.00 0.00 C 459.00 99.65 458.99 199.29 459.01 298.94 C 445.73 298.94 432.46 299.02 419.20 299.55 C 326.14 300.59 233.06 299.71 140.00 300.00 C 133.33 299.99 126.66 299.99 119.99 300.00 C 120.01 200.00 120.00 100.00 120.00 0.00 M 139.99 20.00 C 140.01 106.67 140.00 193.33 139.99 280.00 C 146.66 280.00 153.33 279.99 160.00 280.00 C 240.00 280.00 320.00 280.00 400.00 280.00 C 406.66 280.00 413.32 279.99 420.00 280.00 C 426.67 279.99 433.33 279.99 440.01 280.00 C 439.99 193.33 440.00 106.66 440.01 19.99 C 346.67 20.01 253.34 20.00 160.00 20.00 C 153.33 20.00 146.66 20.00 139.99 20.00 Z" />
<path fill="#c5d9f1" opacity="1.00" d=" M 99.99 319.99 C 113.33 320.03 126.66 320.03 140.00 319.99 C 233.05 320.31 326.11 319.38 419.15 320.46 C 439.42 321.24 459.71 320.99 480.00 321.01 L 480.00 440.00 L 100.00 440.00 C 99.99 400.00 100.02 359.99 99.99 319.99 M 120.00 340.00 C 120.00 346.66 120.00 353.33 120.00 360.00 C 126.67 359.99 133.33 359.98 140.00 360.00 C 139.97 353.33 139.99 346.66 140.01 340.00 C 133.34 340.00 126.67 340.00 120.00 340.00 M 160.00 340.00 C 160.00 346.66 160.00 353.32 160.00 360.00 C 153.33 360.01 146.66 360.00 140.00 360.00 C 140.02 366.67 140.01 373.32 140.00 380.00 C 133.33 380.01 126.66 379.99 120.00 380.00 C 120.00 386.66 120.00 393.33 120.00 400.00 C 126.67 400.00 133.33 399.99 140.00 400.00 C 140.01 406.67 140.00 413.32 140.00 420.00 C 146.66 419.99 153.33 419.99 160.00 420.00 C 160.00 413.33 159.99 406.66 160.00 400.00 C 166.67 400.00 173.33 399.99 180.00 400.00 C 180.01 406.67 180.00 413.32 180.00 420.00 C 186.66 419.99 193.33 419.99 200.00 420.00 C 200.00 413.33 199.99 406.66 200.00 400.00 C 206.67 399.99 213.33 399.99 220.00 400.00 C 219.99 393.33 219.99 386.66 220.00 380.00 C 213.33 380.00 206.66 380.00 200.00 380.00 C 199.99 373.33 199.99 366.66 200.00 360.00 C 193.33 360.02 186.66 360.00 180.00 360.00 C 179.99 353.33 179.99 346.65 180.00 340.00 C 173.33 340.00 166.66 340.00 160.00 340.00 M 200.00 340.00 C 200.00 346.67 200.00 353.33 200.00 360.00 C 206.67 359.97 213.33 359.99 220.00 360.01 C 219.99 353.34 219.99 346.66 220.00 340.00 C 213.33 340.00 206.66 340.00 200.00 340.00 M 320.00 359.99 C 320.00 366.66 320.00 373.33 320.00 380.01 C 360.00 379.99 400.00 379.99 440.00 380.01 C 439.99 373.33 439.99 366.66 440.00 359.99 C 400.00 360.00 360.00 360.00 320.00 359.99 Z" />
<path fill="#c5d9f1" opacity="1.00" d=" M 160.00 360.00 C 166.67 360.00 173.33 359.99 180.00 360.00 C 180.00 366.66 180.00 373.33 180.00 380.00 C 173.33 379.99 166.67 380.00 160.00 380.00 C 160.00 373.33 160.00 366.66 160.00 360.00 Z" />
<path fill="#c5d9f1" opacity="1.00" d=" M 140.00 380.00 C 146.67 380.00 153.33 379.99 160.00 380.00 C 160.00 386.66 160.00 393.33 160.00 400.00 C 153.33 399.99 146.67 400.00 140.00 400.00 C 139.99 393.33 139.99 386.66 140.00 380.00 Z" />
<path fill="#c5d9f1" opacity="1.00" d=" M 180.00 380.00 C 186.67 380.00 193.33 379.99 200.00 380.00 C 200.00 386.66 200.00 393.33 200.00 400.00 C 193.33 399.99 186.66 400.00 180.00 400.00 C 180.00 393.33 179.99 386.66 180.00 380.00 Z" />
</g>
<g id="#ffffffff">
<path fill="#ffffff" opacity="1.00" d=" M 139.99 20.00 C 146.66 20.00 153.33 20.00 160.00 20.00 C 160.00 26.67 160.00 33.33 160.00 40.00 C 160.00 46.67 160.00 53.33 160.00 60.00 C 160.00 133.33 160.00 206.67 160.00 280.00 C 153.33 279.99 146.66 280.00 139.99 280.00 C 140.00 193.33 140.01 106.67 139.99 20.00 Z" />
</g>
<g id="#87a9cfff">
<path fill="#87a9cf" opacity="1.00" d=" M 160.00 20.00 C 253.34 20.00 346.67 20.01 440.01 19.99 C 440.00 106.66 439.99 193.33 440.01 280.00 C 433.33 279.99 426.67 279.99 420.00 280.00 C 420.00 200.00 419.99 119.99 420.01 39.99 C 333.34 40.01 246.67 39.99 160.00 40.00 C 160.00 33.33 160.00 26.67 160.00 20.00 Z" />
<path fill="#87a9cf" opacity="1.00" d=" M 140.00 300.00 C 233.06 299.71 326.14 300.59 419.20 299.55 C 419.14 306.52 419.09 313.49 419.15 320.46 C 326.11 319.38 233.05 320.31 140.00 319.99 C 140.00 313.33 140.00 306.65 140.00 300.00 Z" />
<path fill="#87a9cf" opacity="1.00" d=" M 120.00 340.00 C 126.67 340.00 133.34 340.00 140.01 340.00 C 139.99 346.66 139.97 353.33 140.00 360.00 C 133.33 359.98 126.67 359.99 120.00 360.00 C 120.00 353.33 120.00 346.66 120.00 340.00 Z" />
<path fill="#87a9cf" opacity="1.00" d=" M 160.00 340.00 C 166.66 340.00 173.33 340.00 180.00 340.00 C 179.99 346.65 179.99 353.33 180.00 360.00 C 173.33 359.99 166.67 360.00 160.00 360.00 C 160.00 353.32 160.00 346.66 160.00 340.00 Z" />
<path fill="#87a9cf" opacity="1.00" d=" M 200.00 340.00 C 206.66 340.00 213.33 340.00 220.00 340.00 C 219.99 346.66 219.99 353.34 220.00 360.01 C 213.33 359.99 206.67 359.97 200.00 360.00 C 200.00 353.33 200.00 346.67 200.00 340.00 Z" />
<path fill="#87a9cf" opacity="1.00" d=" M 140.00 360.00 C 146.66 360.00 153.33 360.01 160.00 360.00 C 160.00 366.66 160.00 373.33 160.00 380.00 C 153.33 379.99 146.67 380.00 140.00 380.00 C 140.01 373.32 140.02 366.67 140.00 360.00 Z" />
<path fill="#87a9cf" opacity="1.00" d=" M 180.00 360.00 C 186.66 360.00 193.33 360.02 200.00 360.00 C 199.99 366.66 199.99 373.33 200.00 380.00 C 193.33 379.99 186.67 380.00 180.00 380.00 C 180.00 373.33 180.00 366.66 180.00 360.00 Z" />
<path fill="#87a9cf" opacity="1.00" d=" M 320.00 359.99 C 360.00 360.00 400.00 360.00 440.00 359.99 C 439.99 366.66 439.99 373.33 440.00 380.01 C 400.00 379.99 360.00 379.99 320.00 380.01 C 320.00 373.33 320.00 366.66 320.00 359.99 Z" />
<path fill="#87a9cf" opacity="1.00" d=" M 120.00 380.00 C 126.66 379.99 133.33 380.01 140.00 380.00 C 139.99 386.66 139.99 393.33 140.00 400.00 C 133.33 399.99 126.67 400.00 120.00 400.00 C 120.00 393.33 120.00 386.66 120.00 380.00 Z" />
<path fill="#87a9cf" opacity="1.00" d=" M 160.00 380.00 C 166.67 380.00 173.33 379.99 180.00 380.00 C 179.99 386.66 180.00 393.33 180.00 400.00 C 173.33 399.99 166.67 400.00 160.00 400.00 C 160.00 393.33 160.00 386.66 160.00 380.00 Z" />
<path fill="#87a9cf" opacity="1.00" d=" M 200.00 380.00 C 206.66 380.00 213.33 380.00 220.00 380.00 C 219.99 386.66 219.99 393.33 220.00 400.00 C 213.33 399.99 206.67 399.99 200.00 400.00 C 200.00 393.33 200.00 386.66 200.00 380.00 Z" />
<path fill="#87a9cf" opacity="1.00" d=" M 140.00 400.00 C 146.67 400.00 153.33 399.99 160.00 400.00 C 159.99 406.66 160.00 413.33 160.00 420.00 C 153.33 419.99 146.66 419.99 140.00 420.00 C 140.00 413.32 140.01 406.67 140.00 400.00 Z" />
<path fill="#87a9cf" opacity="1.00" d=" M 180.00 400.00 C 186.66 400.00 193.33 399.99 200.00 400.00 C 199.99 406.66 200.00 413.33 200.00 420.00 C 193.33 419.99 186.66 419.99 180.00 420.00 C 180.00 413.32 180.01 406.67 180.00 400.00 Z" />
</g>
<g id="#131b49ff">
<path fill="#131b49" opacity="1.00" d=" M 160.00 40.00 C 246.67 39.99 333.34 40.01 420.01 39.99 C 419.99 119.99 420.00 200.00 420.00 280.00 C 413.32 279.99 406.66 280.00 400.00 280.00 C 400.00 206.66 399.99 133.33 400.01 59.99 C 320.00 60.01 240.00 59.99 160.00 60.00 C 160.00 53.33 160.00 46.67 160.00 40.00 Z" />
</g>
<g id="#64ff0eff">
<path fill="#64ff0e" opacity="1.00" d=" M 180.00 80.00 C 186.66 80.00 193.33 80.00 200.00 80.00 C 199.99 86.66 199.99 93.33 200.00 100.00 C 193.33 99.99 186.66 99.99 180.00 100.00 C 180.00 93.33 180.00 86.66 180.00 80.00 Z" />
<path fill="#64ff0e" opacity="1.00" d=" M 220.00 79.99 C 240.00 80.01 260.00 80.01 280.00 79.99 C 279.99 86.66 279.99 93.33 280.00 100.01 C 260.00 99.99 240.00 99.99 220.00 100.01 C 220.00 93.33 220.00 86.66 220.00 79.99 Z" />
<path fill="#64ff0e" opacity="1.00" d=" M 300.00 80.00 C 306.66 80.00 313.33 80.00 320.00 80.00 C 319.99 86.66 319.99 93.33 320.00 100.00 C 313.33 99.99 306.66 99.99 300.00 100.00 C 300.00 93.33 300.00 86.66 300.00 80.00 Z" />
<path fill="#64ff0e" opacity="1.00" d=" M 180.00 119.99 C 200.00 120.01 220.00 120.01 240.00 119.99 C 239.99 126.66 239.99 133.33 240.00 140.01 C 220.00 139.99 200.00 139.99 180.00 140.01 C 180.00 133.33 180.00 126.66 180.00 119.99 Z" />
<path fill="#64ff0e" opacity="1.00" d=" M 260.00 120.00 C 266.66 120.00 273.33 120.00 280.00 120.00 C 279.99 126.66 279.99 133.33 280.00 140.00 C 273.33 139.99 266.66 139.99 260.00 140.00 C 260.00 133.33 260.00 126.66 260.00 120.00 Z" />
</g>
</svg>
